<svg width="57.000000" height="535.000000" viewBox="0 0 57 535" fill="none" xmlns="http://www.w3.org/2000/svg" xmlns:xlink="http://www.w3.org/1999/xlink">
	<circle cx="28.500000" cy="28.500000" r="27.500000" stroke="#000000" stroke-opacity="1.000000" stroke-width="2.000000"/>
	<path id="S" d="M31.42 25.09L29.71 25.09C29.54 23.65 28.2 22.81 26.45 22.81C24.51 22.81 23.23 23.84 23.23 25.23C23.23 26.79 24.97 27.36 26.04 27.64L27.52 28.04C29.03 28.44 31.62 29.32 31.62 32.04C31.62 34.4 29.71 36.25 26.36 36.25C23.23 36.25 21.3 34.63 21.13 32.25L22.95 32.25C23.09 33.89 24.62 34.66 26.36 34.66C28.37 34.66 29.91 33.61 29.91 32.02C29.91 30.57 28.54 30.03 27.01 29.6L25.22 29.09C22.95 28.44 21.53 27.27 21.53 25.31C21.53 22.87 23.72 21.25 26.5 21.25C29.31 21.25 31.34 22.89 31.42 25.09Z" fill="currentColor" fill-opacity="1.000000" fill-rule="evenodd"/>
	<path id="1" d="M36.91 14.27L37.97 14.27L37.97 23L36.91 23L36.91 15.37L36.86 15.37L34.73 16.79L34.73 15.72L36.91 14.27Z" fill="currentColor" fill-opacity="1.000000" fill-rule="evenodd"/>
	<path id="1" d="M36.91 36.27L37.97 36.27L37.97 45L36.91 45L36.91 37.37L36.86 37.37L34.73 38.79L34.73 37.72L36.91 36.27Z" fill="currentColor" fill-opacity="1.000000" fill-rule="evenodd"/>
	<circle cx="28.500000" cy="190.500000" r="27.500000" stroke="#000000" stroke-opacity="1.000000" stroke-width="2.000000"/>
	<path id="S" d="M31.42 187.09L29.71 187.09C29.54 185.65 28.2 184.81 26.45 184.81C24.51 184.81 23.23 185.84 23.23 187.23C23.23 188.79 24.97 189.36 26.04 189.64L27.52 190.04C29.03 190.44 31.62 191.32 31.62 194.05C31.62 196.4 29.71 198.25 26.36 198.25C23.23 198.25 21.3 196.63 21.13 194.25L22.95 194.25C23.09 195.89 24.62 196.66 26.36 196.66C28.37 196.66 29.91 195.61 29.91 194.02C29.91 192.57 28.54 192.03 27.01 191.6L25.22 191.09C22.95 190.44 21.53 189.27 21.53 187.31C21.53 184.87 23.72 183.25 26.5 183.25C29.31 183.25 31.34 184.89 31.42 187.09Z" fill="currentColor" fill-opacity="1.000000" fill-rule="evenodd"/>
	<path id="1" d="M36.91 176.27L37.97 176.27L37.97 185L36.91 185L36.91 177.38L36.86 177.38L34.73 178.79L34.73 177.72L36.91 176.27Z" fill="currentColor" fill-opacity="1.000000" fill-rule="evenodd"/>
	<path id="2" d="M40.41 207L34.9 207L34.9 206.23L37.78 203.08C38.79 201.97 39.26 201.37 39.26 200.57C39.26 199.65 38.54 199.07 37.59 199.07C36.58 199.07 35.94 199.73 35.94 200.72L34.93 200.72C34.93 199.19 36.1 198.15 37.62 198.15C39.16 198.15 40.25 199.22 40.25 200.57C40.25 201.54 39.81 202.29 38.31 203.89L36.35 205.99L36.35 206.06L40.41 206.06L40.41 207Z" fill="currentColor" fill-opacity="1.000000" fill-rule="evenodd"/>
	<circle cx="28.500000" cy="348.500000" r="27.500000" stroke="#000000" stroke-opacity="1.000000" stroke-width="2.000000"/>
	<path id="S" d="M31.42 345.09L29.71 345.09C29.54 343.65 28.2 342.81 26.45 342.81C24.51 342.81 23.23 343.84 23.23 345.23C23.23 346.79 24.97 347.36 26.04 347.64L27.52 348.04C29.03 348.44 31.62 349.32 31.62 352.05C31.62 354.4 29.71 356.25 26.36 356.25C23.23 356.25 21.3 354.63 21.13 352.25L22.95 352.25C23.09 353.89 24.62 354.66 26.36 354.66C28.37 354.66 29.91 353.61 29.91 352.02C29.91 350.57 28.54 350.03 27.01 349.6L25.22 349.09C22.95 348.44 21.53 347.27 21.53 345.31C21.53 342.87 23.72 341.25 26.5 341.25C29.31 341.25 31.34 342.89 31.42 345.09Z" fill="currentColor" fill-opacity="1.000000" fill-rule="evenodd"/>
	<path id="1" d="M36.91 334.27L37.97 334.27L37.97 343L36.91 343L36.91 335.38L36.86 335.38L34.73 336.79L34.73 335.72L36.91 334.27Z" fill="currentColor" fill-opacity="1.000000" fill-rule="evenodd"/>
	<path id="3" d="M40.79 362.63C40.79 364.06 39.54 365.12 37.85 365.12C36.15 365.12 34.94 364.19 34.88 362.81L35.96 362.81C36.02 363.66 36.82 364.18 37.83 364.18C38.95 364.18 39.76 363.55 39.76 362.63C39.76 361.66 39.02 360.99 37.7 360.99L37 360.99L37 360.05L37.7 360.05C38.73 360.05 39.45 359.46 39.45 358.54C39.45 357.65 38.83 357.07 37.87 357.07C36.96 357.07 36.13 357.58 36.09 358.45L35.07 358.45C35.12 357.08 36.37 356.15 37.88 356.15C39.5 356.15 40.47 357.25 40.47 358.48C40.47 359.47 39.92 360.19 39.04 360.46L39.04 360.53C40.14 360.71 40.79 361.52 40.79 362.63Z" fill="currentColor" fill-opacity="1.000000" fill-rule="evenodd"/>
	<circle cx="28.500000" cy="506.500000" r="27.500000" stroke="#000000" stroke-opacity="1.000000" stroke-width="2.000000"/>
	<path id="S" d="M31.42 503.09L29.71 503.09C29.54 501.65 28.2 500.81 26.45 500.81C24.51 500.81 23.23 501.84 23.23 503.23C23.23 504.79 24.97 505.36 26.04 505.64L27.52 506.04C29.03 506.44 31.62 507.32 31.62 510.05C31.62 512.4 29.71 514.25 26.36 514.25C23.23 514.25 21.3 512.63 21.13 510.25L22.95 510.25C23.09 511.89 24.62 512.66 26.36 512.66C28.37 512.66 29.91 511.61 29.91 510.02C29.91 508.57 28.54 508.03 27.01 507.6L25.22 507.09C22.95 506.44 21.53 505.27 21.53 503.31C21.53 500.87 23.72 499.25 26.5 499.25C29.31 499.25 31.34 500.89 31.42 503.09Z" fill="currentColor" fill-opacity="1.000000" fill-rule="evenodd"/>
	<path id="1" d="M36.91 492.27L37.97 492.27L37.97 501L36.91 501L36.91 493.38L36.86 493.38L34.73 494.79L34.73 493.72L36.91 492.27Z" fill="currentColor" fill-opacity="1.000000" fill-rule="evenodd"/>
	<path id="4" d="M38.8 521.21L34.7 521.21L34.7 520.34L38.53 514.27L39.81 514.27L39.81 520.27L41 520.27L41 521.21L39.81 521.21L39.81 523L38.8 523L38.8 521.21ZM35.83 520.27L38.8 520.27L38.8 515.62L38.73 515.62L35.83 520.2L35.83 520.27Z" fill="currentColor" fill-opacity="1.000000" fill-rule="evenodd"/>
</svg>
