<svg xmlns="http://www.w3.org/2000/svg" xmlns:xlink="http://www.w3.org/1999/xlink" width="342.000000"
     height="535.000000" viewBox="0 0 342 535" fill="none">


    <circle cx="28.500000" cy="28.500000" r="27.500000" stroke="currentColor" stroke-opacity="1.000000"
            stroke-width="2.000000"/>
    <path
          d="M31.42 25.09L29.71 25.09C29.54 23.65 28.2 22.81 26.45 22.81C24.51 22.81 23.23 23.84 23.23 25.23C23.23 26.79 24.97 27.36 26.04 27.64L27.52 28.04C29.03 28.44 31.62 29.32 31.62 32.04C31.62 34.4 29.71 36.25 26.36 36.25C23.23 36.25 21.3 34.63 21.13 32.25L22.95 32.25C23.09 33.89 24.62 34.66 26.36 34.66C28.37 34.66 29.91 33.61 29.91 32.02C29.91 30.57 28.54 30.03 27.01 29.6L25.22 29.09C22.95 28.44 21.53 27.27 21.53 25.31C21.53 22.87 23.72 21.25 26.5 21.25C29.31 21.25 31.34 22.89 31.42 25.09Z"
          fill="currentColor" fill-opacity="1.000000" fill-rule="evenodd"/>
    <path
          d="M36.91 14.27L37.97 14.27L37.97 23L36.91 23L36.91 15.37L36.86 15.37L34.73 16.79L34.73 15.72L36.91 14.27Z"
          fill="currentColor" fill-opacity="1.000000" fill-rule="evenodd"/>
    <path
          d="M36.91 36.27L37.97 36.27L37.97 45L36.91 45L36.91 37.37L36.86 37.37L34.73 38.79L34.73 37.72L36.91 36.27Z"
          fill="currentColor" fill-opacity="1.000000" fill-rule="evenodd"/>

    <circle cx="28.500000" cy="190.500000" r="27.500000" stroke="currentColor" stroke-opacity="1.000000"
            stroke-width="2.000000"/>
    <path
          d="M31.42 187.09L29.71 187.09C29.54 185.65 28.2 184.81 26.45 184.81C24.51 184.81 23.23 185.84 23.23 187.23C23.23 188.79 24.97 189.36 26.04 189.64L27.52 190.04C29.03 190.44 31.62 191.32 31.62 194.05C31.62 196.4 29.71 198.25 26.36 198.25C23.23 198.25 21.3 196.63 21.13 194.25L22.95 194.25C23.09 195.89 24.62 196.66 26.36 196.66C28.37 196.66 29.91 195.61 29.91 194.02C29.91 192.57 28.54 192.03 27.01 191.6L25.22 191.09C22.95 190.44 21.53 189.27 21.53 187.31C21.53 184.87 23.72 183.25 26.5 183.25C29.31 183.25 31.34 184.89 31.42 187.09Z"
          fill="currentColor" fill-opacity="1.000000" fill-rule="evenodd"/>
    <path
          d="M36.91 176.27L37.97 176.27L37.97 185L36.91 185L36.91 177.38L36.86 177.38L34.73 178.79L34.73 177.72L36.91 176.27Z"
          fill="currentColor" fill-opacity="1.000000" fill-rule="evenodd"/>
    <path
          d="M40.41 207L34.9 207L34.9 206.23L37.78 203.08C38.79 201.97 39.26 201.37 39.26 200.57C39.26 199.65 38.54 199.07 37.59 199.07C36.58 199.07 35.94 199.73 35.94 200.72L34.93 200.72C34.93 199.19 36.1 198.15 37.62 198.15C39.16 198.15 40.25 199.22 40.25 200.57C40.25 201.54 39.81 202.29 38.31 203.89L36.35 205.99L36.35 206.06L40.41 206.06L40.41 207Z"
          fill="currentColor" fill-opacity="1.000000" fill-rule="evenodd"/>

    <circle cx="28.500000" cy="348.500000" r="27.500000" stroke="currentColor" stroke-opacity="1.000000"
            stroke-width="2.000000"/>
    <path
          d="M31.42 345.09L29.71 345.09C29.54 343.65 28.2 342.81 26.45 342.81C24.51 342.81 23.23 343.84 23.23 345.23C23.23 346.79 24.97 347.36 26.04 347.64L27.52 348.04C29.03 348.44 31.62 349.32 31.62 352.05C31.62 354.4 29.71 356.25 26.36 356.25C23.23 356.25 21.3 354.63 21.13 352.25L22.95 352.25C23.09 353.89 24.62 354.66 26.36 354.66C28.37 354.66 29.91 353.61 29.91 352.02C29.91 350.57 28.54 350.03 27.01 349.6L25.22 349.09C22.95 348.44 21.53 347.27 21.53 345.31C21.53 342.87 23.72 341.25 26.5 341.25C29.31 341.25 31.34 342.89 31.42 345.09Z"
          fill="currentColor" fill-opacity="1.000000" fill-rule="evenodd"/>
    <path
          d="M36.91 334.27L37.97 334.27L37.97 343L36.91 343L36.91 335.38L36.86 335.38L34.73 336.79L34.73 335.72L36.91 334.27Z"
          fill="currentColor" fill-opacity="1.000000" fill-rule="evenodd"/>
    <path
          d="M40.79 362.63C40.79 364.06 39.54 365.12 37.85 365.12C36.15 365.12 34.94 364.19 34.88 362.81L35.96 362.81C36.02 363.66 36.82 364.18 37.83 364.18C38.95 364.18 39.76 363.55 39.76 362.63C39.76 361.66 39.02 360.99 37.7 360.99L37 360.99L37 360.05L37.7 360.05C38.73 360.05 39.45 359.46 39.45 358.54C39.45 357.65 38.83 357.07 37.87 357.07C36.96 357.07 36.13 357.58 36.09 358.45L35.07 358.45C35.12 357.08 36.37 356.15 37.88 356.15C39.5 356.15 40.47 357.25 40.47 358.48C40.47 359.47 39.92 360.19 39.04 360.46L39.04 360.53C40.14 360.71 40.79 361.52 40.79 362.63Z"
          fill="currentColor" fill-opacity="1.000000" fill-rule="evenodd"/>

    <circle cx="28.500000" cy="506.500000" r="27.500000" stroke="currentColor" stroke-opacity="1.000000"
            stroke-width="2.000000"/>
    <path
          d="M31.42 503.09L29.71 503.09C29.54 501.65 28.2 500.81 26.45 500.81C24.51 500.81 23.23 501.84 23.23 503.23C23.23 504.79 24.97 505.36 26.04 505.64L27.52 506.04C29.03 506.44 31.62 507.32 31.62 510.05C31.62 512.4 29.71 514.25 26.36 514.25C23.23 514.25 21.3 512.63 21.13 510.25L22.95 510.25C23.09 511.89 24.62 512.66 26.36 512.66C28.37 512.66 29.91 511.61 29.91 510.02C29.91 508.57 28.54 508.03 27.01 507.6L25.22 507.09C22.95 506.44 21.53 505.27 21.53 503.31C21.53 500.87 23.72 499.25 26.5 499.25C29.31 499.25 31.34 500.89 31.42 503.09Z"
          fill="currentColor" fill-opacity="1.000000" fill-rule="evenodd"/>
    <path
          d="M36.91 492.27L37.97 492.27L37.97 501L36.91 501L36.91 493.38L36.86 493.38L34.73 494.79L34.73 493.72L36.91 492.27Z"
          fill="currentColor" fill-opacity="1.000000" fill-rule="evenodd"/>
    <path
          d="M38.8 521.21L34.7 521.21L34.7 520.34L38.53 514.27L39.81 514.27L39.81 520.27L41 520.27L41 521.21L39.81 521.21L39.81 523L38.8 523L38.8 521.21ZM35.83 520.27L38.8 520.27L38.8 515.62L38.73 515.62L35.83 520.2L35.83 520.27Z"
          fill="currentColor" fill-opacity="1.000000" fill-rule="evenodd"/>
    <path id="way_1_1"
          d="M282.59 25.03L57.01 27.99L56.98 26L282.57 23.03L278.57 19.13C278.17 18.74 278.16 18.12 278.55 17.72C278.94 17.31 279.56 17.31 279.96 17.7L285.69 23.28C286.09 23.67 286.1 24.29 285.71 24.69L280.13 30.42C279.74 30.82 279.12 30.83 278.72 30.44C278.31 30.05 278.31 29.43 278.7 29.03L282.59 25.03Z"
          fill="currentColor" fill-opacity="1.000000" fill-rule="evenodd"/>
    <path id="way_2_2"
          d="M282.58 186.01L278.61 182.07C278.21 181.68 278.21 181.06 278.6 180.66C279 180.26 279.62 180.26 280.02 180.65L285.7 186.29C286.1 186.68 286.1 187.3 285.71 187.7L280.07 193.38C279.68 193.78 279.06 193.78 278.66 193.39C278.26 192.99 278.26 192.37 278.65 191.97L282.59 188.01L57 189L56.99 187L282.58 186.01Z"
          fill="currentColor" fill-opacity="1.000000" fill-rule="evenodd"/>
    <path id="way_3_3"
          d="M282.56 345.04L278.54 341.16C278.14 340.77 278.13 340.15 278.52 339.74C278.91 339.34 279.53 339.33 279.93 339.72L285.69 345.28C286.09 345.67 286.1 346.29 285.71 346.69L280.16 352.45C279.77 352.85 279.15 352.86 278.74 352.47C278.34 352.08 278.33 351.46 278.72 351.06L282.6 347.04L57.01 351L56.98 349L282.56 345.04Z"
          fill="currentColor" fill-opacity="1.000000" fill-rule="evenodd"/>
    <path id="way_4_4"
          d="M282.59 503.98L278.65 500.02C278.26 499.62 278.26 499 278.66 498.6C279.06 498.21 279.68 498.21 280.07 498.61L285.71 504.29C286.1 504.69 286.1 505.31 285.7 505.71L280.02 511.34C279.62 511.73 279 511.73 278.6 511.33C278.21 510.93 278.21 510.31 278.61 509.92L282.58 505.98L56.99 505L57 503L282.59 503.98Z"
          fill="currentColor" fill-opacity="1.000000" fill-rule="evenodd"/>
    <path id="way_3_4"
          d="M283.53 498.83L57.55 349.16L56.44 350.83L282.43 500.5L276.96 501.61C276.41 501.72 276.06 502.24 276.18 502.79C276.29 503.34 276.81 503.68 277.35 503.57L285.19 501.98C285.74 501.86 286.09 501.35 285.98 500.8L284.38 492.96C284.27 492.41 283.75 492.06 283.2 492.18C282.65 492.29 282.31 492.81 282.42 493.35L283.53 498.83Z"
          fill="currentColor" fill-opacity="1.000000" fill-rule="evenodd"/>
    <path id="way_2_3"
          d="M282.44 341.47L276.95 342.51C276.4 342.62 276.05 343.13 276.15 343.68C276.26 344.23 276.77 344.58 277.32 344.48L285.18 342.98C285.73 342.87 286.08 342.36 285.98 341.81L284.48 333.95C284.38 333.4 283.86 333.05 283.31 333.15C282.76 333.26 282.41 333.77 282.51 334.32L283.56 339.81L57.56 186.17L56.43 187.82L282.44 341.47Z"
          fill="currentColor" fill-opacity="1.000000" fill-rule="evenodd"/>
    <path id="way_1_2"
          d="M282.44 182.45L276.95 183.46C276.4 183.56 276.04 184.08 276.14 184.63C276.25 185.18 276.76 185.53 277.31 185.43L285.18 183.98C285.73 183.88 286.08 183.36 285.98 182.81L284.53 174.95C284.43 174.4 283.91 174.04 283.36 174.14C282.81 174.25 282.46 174.76 282.56 175.31L283.57 180.8L57.56 25.17L56.43 26.82L282.44 182.45Z"
          fill="currentColor" fill-opacity="1.000000" fill-rule="evenodd"/>
    <path id="way_2_1"
          d="M282.44 32.53L276.95 31.48C276.4 31.37 276.05 30.86 276.15 30.31C276.26 29.76 276.77 29.41 277.32 29.51L285.18 31.01C285.73 31.12 286.08 31.63 285.98 32.18L284.48 40.04C284.38 40.59 283.86 40.94 283.31 40.84C282.76 40.73 282.41 40.22 282.51 39.67L283.56 34.18L57.56 187.82L56.43 186.17L282.44 32.53Z"
          fill="currentColor" fill-opacity="1.000000" fill-rule="evenodd"/>
    <path id="way_3_2"
          d="M283.59 195.2L57.57 352.82L56.42 351.18L282.44 193.56L276.94 192.58C276.39 192.48 276.04 191.97 276.14 191.42C276.23 190.86 276.74 190.51 277.29 190.61L285.17 192.01C285.72 192.11 286.08 192.62 285.98 193.17L284.57 201.05C284.48 201.6 283.97 201.95 283.42 201.86C282.86 201.76 282.51 201.25 282.61 200.7L283.59 195.2Z"
          fill="currentColor" fill-opacity="1.000000" fill-rule="evenodd"/>
    <path id="way_4_3"
          d="M283.57 355.18L57.56 509.82L56.43 508.17L282.44 353.53L276.95 352.5C276.4 352.4 276.05 351.89 276.15 351.34C276.25 350.79 276.77 350.44 277.32 350.54L285.18 352.01C285.73 352.12 286.08 352.63 285.98 353.18L284.5 361.04C284.4 361.59 283.89 361.94 283.34 361.84C282.79 361.74 282.44 361.22 282.54 360.67L283.57 355.18Z"
          fill="currentColor" fill-opacity="1.000000" fill-rule="evenodd"/>
    <path id="way_1_3"
          d="M284.37 333.46L57.8 26.4L56.19 27.59L282.76 334.65L277.23 333.81C276.68 333.73 276.18 334.1 276.1 334.65C276.01 335.21 276.38 335.71 276.94 335.79L284.85 336.98C285.4 337.07 285.9 336.7 285.98 336.14L287.18 328.23C287.26 327.68 286.89 327.18 286.34 327.1C285.78 327.01 285.28 327.38 285.2 327.94L284.37 333.46Z"
          fill="currentColor" fill-opacity="1.000000" fill-rule="evenodd"/>
    <path id="way_2_4"
          d="M284.35 491.46L57.8 187.4L56.19 188.59L282.75 492.66L277.22 491.85C276.67 491.77 276.17 492.14 276.09 492.69C276.01 493.25 276.38 493.75 276.93 493.83L284.85 494.99C285.41 495.07 285.9 494.69 285.98 494.14L287.14 486.22C287.22 485.67 286.85 485.17 286.3 485.09C285.74 485.01 285.24 485.38 285.16 485.93L284.35 491.46Z"
          fill="currentColor" fill-opacity="1.000000" fill-rule="evenodd"/>
    <path id="way_1_4"
          d="M283.03 488.27L277.74 486.49C277.21 486.31 276.65 486.58 276.47 487.11C276.29 487.64 276.57 488.2 277.1 488.38L284.68 490.94C285.21 491.12 285.76 490.85 285.94 490.32L288.51 482.74C288.68 482.21 288.41 481.65 287.88 481.47C287.35 481.29 286.79 481.57 286.61 482.1L284.82 487.39L57.89 28.55L56.1 29.44L283.03 488.27Z"
          fill="currentColor" fill-opacity="1.000000" fill-rule="evenodd"/>
    <path id="way_4_2"
          d="M284.35 200.53L57.8 504.59L56.19 503.4L282.75 199.33L277.22 200.14C276.67 200.22 276.17 199.85 276.09 199.3C276.01 198.74 276.38 198.24 276.93 198.16L284.85 197.01C285.41 196.93 285.9 197.3 285.98 197.85L287.14 205.77C287.22 206.32 286.85 206.82 286.3 206.9C285.74 206.98 285.24 206.61 285.16 206.06L284.35 200.53Z"
          fill="currentColor" fill-opacity="1.000000" fill-rule="evenodd"/>
    <path id="way_3_1"
          d="M282.77 34.37L277.26 35.27C276.71 35.36 276.2 35 276.11 34.45C276.02 33.89 276.39 33.39 276.94 33.3L284.83 32.01C285.39 31.92 285.89 32.28 285.98 32.83L287.27 40.73C287.36 41.28 287 41.79 286.45 41.88C285.89 41.97 285.39 41.6 285.3 41.05L284.4 35.54L57.81 350.58L56.18 349.41L282.77 34.37Z"
          fill="currentColor" fill-opacity="1.000000" fill-rule="evenodd"/>
    <path id="way_4_1"
          d="M283.04 40.73L277.76 42.54C277.23 42.72 276.67 42.45 276.48 41.92C276.3 41.39 276.57 40.83 277.1 40.65L284.67 38.05C285.2 37.87 285.76 38.14 285.94 38.67L288.54 46.23C288.72 46.76 288.45 47.32 287.92 47.51C287.39 47.69 286.83 47.41 286.65 46.89L284.83 41.6L57.89 506.43L56.1 505.56L283.04 40.73Z"
          fill="currentColor" fill-opacity="1.000000" fill-rule="evenodd"/>

    <circle cx="313.500000" cy="28.500000" r="27.500000" stroke="currentColor" stroke-opacity="1.000000"
            stroke-width="2.000000"/>
    <path
          d="M316.42 25.09L314.71 25.09C314.54 23.65 313.2 22.81 311.45 22.81C309.51 22.81 308.23 23.84 308.23 25.23C308.23 26.79 309.97 27.36 311.04 27.64L312.52 28.04C314.03 28.44 316.62 29.32 316.62 32.04C316.62 34.4 314.71 36.25 311.36 36.25C308.23 36.25 306.3 34.63 306.13 32.25L307.95 32.25C308.09 33.89 309.62 34.66 311.36 34.66C313.37 34.66 314.91 33.61 314.91 32.02C314.91 30.57 313.54 30.03 312.01 29.6L310.22 29.09C307.95 28.44 306.53 27.27 306.53 25.31C306.53 22.87 308.72 21.25 311.5 21.25C314.31 21.25 316.34 22.89 316.42 25.09Z"
          fill="currentColor" fill-opacity="1.000000" fill-rule="evenodd"/>
    <path
          d="M325.41 23L319.9 23L319.9 22.23L322.78 19.08C323.79 17.97 324.26 17.37 324.26 16.57C324.26 15.65 323.54 15.07 322.59 15.07C321.58 15.07 320.94 15.73 320.94 16.72L319.93 16.72C319.93 15.19 321.1 14.15 322.63 14.15C324.16 14.15 325.25 15.22 325.25 16.57C325.25 17.54 324.81 18.29 323.31 19.89L321.35 21.99L321.35 22.06L325.41 22.06L325.41 23Z"
          fill="currentColor" fill-opacity="1.000000" fill-rule="evenodd"/>
    <path
          d="M321.91 36.27L322.97 36.27L322.97 45L321.91 45L321.91 37.37L321.86 37.37L319.73 38.79L319.73 37.72L321.91 36.27Z"
          fill="currentColor" fill-opacity="1.000000" fill-rule="evenodd"/>

    <circle cx="313.500000" cy="190.500000" r="27.500000" stroke="currentColor" stroke-opacity="1.000000"
            stroke-width="2.000000"/>
    <path
          d="M316.42 187.09L314.71 187.09C314.54 185.65 313.2 184.81 311.45 184.81C309.51 184.81 308.23 185.84 308.23 187.23C308.23 188.79 309.97 189.36 311.04 189.64L312.52 190.04C314.03 190.44 316.62 191.32 316.62 194.05C316.62 196.4 314.71 198.25 311.36 198.25C308.23 198.25 306.3 196.63 306.13 194.25L307.95 194.25C308.09 195.89 309.62 196.66 311.36 196.66C313.37 196.66 314.91 195.61 314.91 194.02C314.91 192.57 313.54 192.03 312.01 191.6L310.22 191.09C307.95 190.44 306.53 189.27 306.53 187.31C306.53 184.87 308.72 183.25 311.5 183.25C314.31 183.25 316.34 184.89 316.42 187.09Z"
          fill="currentColor" fill-opacity="1.000000" fill-rule="evenodd"/>
    <path
          d="M325.41 185L319.9 185L319.9 184.23L322.78 181.08C323.79 179.97 324.26 179.37 324.26 178.57C324.26 177.65 323.54 177.07 322.59 177.07C321.58 177.07 320.94 177.73 320.94 178.72L319.93 178.72C319.93 177.19 321.1 176.15 322.63 176.15C324.16 176.15 325.25 177.22 325.25 178.57C325.25 179.54 324.81 180.29 323.31 181.89L321.35 183.99L321.35 184.06L325.41 184.06L325.41 185Z"
          fill="currentColor" fill-opacity="1.000000" fill-rule="evenodd"/>
    <path
          d="M325.41 207L319.9 207L319.9 206.23L322.78 203.08C323.79 201.97 324.26 201.37 324.26 200.57C324.26 199.65 323.54 199.07 322.59 199.07C321.58 199.07 320.94 199.73 320.94 200.72L319.93 200.72C319.93 199.19 321.1 198.15 322.63 198.15C324.16 198.15 325.25 199.22 325.25 200.57C325.25 201.54 324.81 202.29 323.31 203.89L321.35 205.99L321.35 206.06L325.41 206.06L325.41 207Z"
          fill="currentColor" fill-opacity="1.000000" fill-rule="evenodd"/>

    <circle cx="313.500000" cy="348.500000" r="27.500000" stroke="currentColor" stroke-opacity="1.000000"
            stroke-width="2.000000"/>
    <path
          d="M316.42 345.09L314.71 345.09C314.54 343.65 313.2 342.81 311.45 342.81C309.51 342.81 308.23 343.84 308.23 345.23C308.23 346.79 309.97 347.36 311.04 347.64L312.52 348.04C314.03 348.44 316.62 349.32 316.62 352.05C316.62 354.4 314.71 356.25 311.36 356.25C308.23 356.25 306.3 354.63 306.13 352.25L307.95 352.25C308.09 353.89 309.62 354.66 311.36 354.66C313.37 354.66 314.91 353.61 314.91 352.02C314.91 350.57 313.54 350.03 312.01 349.6L310.22 349.09C307.95 348.44 306.53 347.27 306.53 345.31C306.53 342.87 308.72 341.25 311.5 341.25C314.31 341.25 316.34 342.89 316.42 345.09Z"
          fill="currentColor" fill-opacity="1.000000" fill-rule="evenodd"/>
    <path
          d="M325.41 343L319.9 343L319.9 342.23L322.78 339.08C323.79 337.97 324.26 337.37 324.26 336.57C324.26 335.65 323.54 335.07 322.59 335.07C321.58 335.07 320.94 335.73 320.94 336.72L319.93 336.72C319.93 335.19 321.1 334.15 322.63 334.15C324.16 334.15 325.25 335.22 325.25 336.57C325.25 337.54 324.81 338.29 323.31 339.89L321.35 341.99L321.35 342.06L325.41 342.06L325.41 343Z"
          fill="currentColor" fill-opacity="1.000000" fill-rule="evenodd"/>
    <path
          d="M325.79 362.63C325.79 364.06 324.54 365.12 322.85 365.12C321.15 365.12 319.94 364.19 319.88 362.81L320.96 362.81C321.02 363.66 321.82 364.18 322.83 364.18C323.95 364.18 324.76 363.55 324.76 362.63C324.76 361.66 324.02 360.99 322.7 360.99L322 360.99L322 360.05L322.7 360.05C323.73 360.05 324.45 359.46 324.45 358.54C324.45 357.65 323.83 357.07 322.87 357.07C321.96 357.07 321.13 357.58 321.09 358.45L320.07 358.45C320.12 357.08 321.37 356.15 322.88 356.15C324.5 356.15 325.47 357.25 325.47 358.48C325.47 359.47 324.92 360.19 324.04 360.46L324.04 360.53C325.14 360.71 325.79 361.52 325.79 362.63Z"
          fill="currentColor" fill-opacity="1.000000" fill-rule="evenodd"/>

    <circle cx="313.500000" cy="506.500000" r="27.500000" stroke="currentColor" stroke-opacity="1.000000"
            stroke-width="2.000000"/>
    <path
          d="M316.42 503.09L314.71 503.09C314.54 501.65 313.2 500.81 311.45 500.81C309.51 500.81 308.23 501.84 308.23 503.23C308.23 504.79 309.97 505.36 311.04 505.64L312.52 506.04C314.03 506.44 316.62 507.32 316.62 510.05C316.62 512.4 314.71 514.25 311.36 514.25C308.23 514.25 306.3 512.63 306.13 510.25L307.95 510.25C308.09 511.89 309.62 512.66 311.36 512.66C313.37 512.66 314.91 511.61 314.91 510.02C314.91 508.57 313.54 508.03 312.01 507.6L310.22 507.09C307.95 506.44 306.53 505.27 306.53 503.31C306.53 500.87 308.72 499.25 311.5 499.25C314.31 499.25 316.34 500.89 316.42 503.09Z"
          fill="currentColor" fill-opacity="1.000000" fill-rule="evenodd"/>
    <path
          d="M325.41 501L319.9 501L319.9 500.23L322.78 497.08C323.79 495.97 324.26 495.37 324.26 494.57C324.26 493.65 323.54 493.07 322.59 493.07C321.58 493.07 320.94 493.73 320.94 494.72L319.93 494.72C319.93 493.19 321.1 492.15 322.63 492.15C324.16 492.15 325.25 493.22 325.25 494.57C325.25 495.54 324.81 496.29 323.31 497.89L321.35 499.99L321.35 500.06L325.41 500.06L325.41 501Z"
          fill="currentColor" fill-opacity="1.000000" fill-rule="evenodd"/>
    <path
          d="M323.8 521.21L319.7 521.21L319.7 520.34L323.53 514.27L324.81 514.27L324.81 520.27L326 520.27L326 521.21L324.81 521.21L324.81 523L323.8 523L323.8 521.21ZM320.84 520.27L323.8 520.27L323.8 515.62L323.73 515.62L320.84 520.2L320.84 520.27Z"
          fill="currentColor" fill-opacity="1.000000" fill-rule="evenodd"/>
</svg>
