<svg xmlns="http://www.w3.org/2000/svg" xmlns:xlink="http://www.w3.org/1999/xlink" width="342.000000"
     height="694.000000" viewBox="0 0 342 694" fill="none">
    <circle cx="28.500000" cy="105.500000" r="27.500000" stroke="currentColor" stroke-opacity="1.000000"
            stroke-width="2.000000"/>
    <path
          d="M31.42 102.09L29.71 102.09C29.54 100.65 28.2 99.81 26.45 99.81C24.51 99.81 23.23 100.84 23.23 102.23C23.23 103.79 24.97 104.36 26.04 104.64L27.52 105.04C29.03 105.44 31.62 106.32 31.62 109.05C31.62 111.4 29.71 113.25 26.36 113.25C23.23 113.25 21.3 111.63 21.13 109.25L22.95 109.25C23.09 110.89 24.62 111.66 26.36 111.66C28.37 111.66 29.91 110.61 29.91 109.02C29.91 107.57 28.54 107.03 27.01 106.6L25.22 106.09C22.95 105.44 21.53 104.27 21.53 102.31C21.53 99.87 23.72 98.25 26.5 98.25C29.31 98.25 31.34 99.89 31.42 102.09Z"
          fill="currentColor" fill-opacity="1.000000" fill-rule="evenodd"/>
    <path
          d="M36.91 91.27L37.97 91.27L37.97 100L36.91 100L36.91 92.37L36.86 92.37L34.73 93.79L34.73 92.72L36.91 91.27Z"
          fill="currentColor" fill-opacity="1.000000" fill-rule="evenodd"/>
    <path
          d="M36.91 113.27L37.97 113.27L37.97 122L36.91 122L36.91 114.38L36.86 114.38L34.73 115.79L34.73 114.72L36.91 113.27Z"
          fill="currentColor" fill-opacity="1.000000" fill-rule="evenodd"/>

    <circle cx="28.500000" cy="267.500000" r="27.500000" stroke="currentColor" stroke-opacity="1.000000"
            stroke-width="2.000000"/>
    <path
          d="M31.42 264.09L29.71 264.09C29.54 262.65 28.2 261.81 26.45 261.81C24.51 261.81 23.23 262.84 23.23 264.23C23.23 265.79 24.97 266.36 26.04 266.64L27.52 267.04C29.03 267.44 31.62 268.32 31.62 271.04C31.62 273.4 29.71 275.25 26.36 275.25C23.23 275.25 21.3 273.63 21.13 271.25L22.95 271.25C23.09 272.89 24.62 273.66 26.36 273.66C28.37 273.66 29.91 272.61 29.91 271.02C29.91 269.57 28.54 269.03 27.01 268.6L25.22 268.09C22.95 267.44 21.53 266.27 21.53 264.31C21.53 261.87 23.72 260.25 26.5 260.25C29.31 260.25 31.34 261.89 31.42 264.09Z"
          fill="currentColor" fill-opacity="1.000000" fill-rule="evenodd"/>
    <path
          d="M36.91 253.27L37.97 253.27L37.97 262L36.91 262L36.91 254.38L36.86 254.38L34.73 255.79L34.73 254.72L36.91 253.27Z"
          fill="currentColor" fill-opacity="1.000000" fill-rule="evenodd"/>
    <path
          d="M40.41 284L34.9 284L34.9 283.23L37.78 280.07C38.79 278.97 39.26 278.37 39.26 277.57C39.26 276.65 38.54 276.07 37.59 276.07C36.58 276.07 35.94 276.73 35.94 277.72L34.93 277.72C34.93 276.19 36.1 275.15 37.62 275.15C39.16 275.15 40.25 276.22 40.25 277.57C40.25 278.54 39.81 279.29 38.31 280.89L36.35 282.99L36.35 283.06L40.41 283.06L40.41 284Z"
          fill="currentColor" fill-opacity="1.000000" fill-rule="evenodd"/>

    <circle cx="28.500000" cy="425.500000" r="27.500000" stroke="currentColor" stroke-opacity="1.000000"
            stroke-width="2.000000"/>
    <path
          d="M31.42 422.09L29.71 422.09C29.54 420.65 28.2 419.81 26.45 419.81C24.51 419.81 23.23 420.84 23.23 422.23C23.23 423.79 24.97 424.36 26.04 424.64L27.52 425.04C29.03 425.44 31.62 426.32 31.62 429.05C31.62 431.4 29.71 433.25 26.36 433.25C23.23 433.25 21.3 431.63 21.13 429.25L22.95 429.25C23.09 430.89 24.62 431.66 26.36 431.66C28.37 431.66 29.91 430.61 29.91 429.02C29.91 427.57 28.54 427.03 27.01 426.6L25.22 426.09C22.95 425.44 21.53 424.27 21.53 422.31C21.53 419.87 23.72 418.25 26.5 418.25C29.31 418.25 31.34 419.89 31.42 422.09Z"
          fill="currentColor" fill-opacity="1.000000" fill-rule="evenodd"/>
    <path
          d="M36.91 411.27L37.97 411.27L37.97 420L36.91 420L36.91 412.38L36.86 412.38L34.73 413.79L34.73 412.72L36.91 411.27Z"
          fill="currentColor" fill-opacity="1.000000" fill-rule="evenodd"/>
    <path
          d="M40.79 439.63C40.79 441.06 39.54 442.12 37.85 442.12C36.15 442.12 34.94 441.19 34.88 439.81L35.96 439.81C36.02 440.66 36.82 441.18 37.83 441.18C38.95 441.18 39.76 440.55 39.76 439.63C39.76 438.66 39.02 437.99 37.7 437.99L37 437.99L37 437.05L37.7 437.05C38.73 437.05 39.45 436.46 39.45 435.54C39.45 434.65 38.83 434.07 37.87 434.07C36.96 434.07 36.13 434.58 36.09 435.45L35.07 435.45C35.12 434.08 36.37 433.15 37.88 433.15C39.5 433.15 40.47 434.25 40.47 435.48C40.47 436.47 39.92 437.19 39.04 437.46L39.04 437.53C40.14 437.71 40.79 438.52 40.79 439.63Z"
          fill="currentColor" fill-opacity="1.000000" fill-rule="evenodd"/>

    <circle cx="28.500000" cy="583.500000" r="27.500000" stroke="currentColor" stroke-opacity="1.000000"
            stroke-width="2.000000"/>
    <path
          d="M31.42 580.09L29.71 580.09C29.54 578.65 28.2 577.81 26.45 577.81C24.51 577.81 23.23 578.84 23.23 580.23C23.23 581.79 24.97 582.36 26.04 582.64L27.52 583.04C29.03 583.44 31.62 584.32 31.62 587.05C31.62 589.4 29.71 591.25 26.36 591.25C23.23 591.25 21.3 589.63 21.13 587.25L22.95 587.25C23.09 588.89 24.62 589.66 26.36 589.66C28.37 589.66 29.91 588.61 29.91 587.02C29.91 585.57 28.54 585.03 27.01 584.6L25.22 584.09C22.95 583.44 21.53 582.27 21.53 580.31C21.53 577.87 23.72 576.25 26.5 576.25C29.31 576.25 31.34 577.89 31.42 580.09Z"
          fill="currentColor" fill-opacity="1.000000" fill-rule="evenodd"/>
    <path
          d="M36.91 569.27L37.97 569.27L37.97 578L36.91 578L36.91 570.38L36.86 570.38L34.73 571.79L34.73 570.72L36.91 569.27Z"
          fill="currentColor" fill-opacity="1.000000" fill-rule="evenodd"/>
    <path
          d="M38.8 598.21L34.7 598.21L34.7 597.34L38.53 591.27L39.81 591.27L39.81 597.27L41 597.27L41 598.21L39.81 598.21L39.81 600L38.8 600L38.8 598.21ZM35.83 597.27L38.8 597.27L38.8 592.62L38.73 592.62L35.83 597.2L35.83 597.27Z"
          fill="currentColor" fill-opacity="1.000000" fill-rule="evenodd"/>

    <circle cx="313.500000" cy="28.500000" r="27.500000" stroke="currentColor" stroke-opacity="1.000000"
            stroke-width="2.000000"/>
    <path
          d="M316.42 25.09L314.71 25.09C314.54 23.65 313.2 22.81 311.45 22.81C309.51 22.81 308.23 23.84 308.23 25.23C308.23 26.79 309.97 27.36 311.04 27.64L312.52 28.04C314.03 28.44 316.62 29.32 316.62 32.04C316.62 34.4 314.71 36.25 311.36 36.25C308.23 36.25 306.3 34.63 306.13 32.25L307.95 32.25C308.09 33.89 309.62 34.66 311.36 34.66C313.37 34.66 314.91 33.61 314.91 32.02C314.91 30.57 313.54 30.03 312.01 29.6L310.22 29.09C307.95 28.44 306.53 27.27 306.53 25.31C306.53 22.87 308.72 21.25 311.5 21.25C314.31 21.25 316.34 22.89 316.42 25.09Z"
          fill="currentColor" fill-opacity="1.000000" fill-rule="evenodd"/>
    <path
          d="M325.41 23L319.9 23L319.9 22.23L322.78 19.08C323.79 17.97 324.26 17.37 324.26 16.57C324.26 15.65 323.54 15.07 322.59 15.07C321.58 15.07 320.94 15.73 320.94 16.72L319.93 16.72C319.93 15.19 321.1 14.15 322.63 14.15C324.16 14.15 325.25 15.22 325.25 16.57C325.25 17.54 324.81 18.29 323.31 19.89L321.35 21.99L321.35 22.06L325.41 22.06L325.41 23Z"
          fill="currentColor" fill-opacity="1.000000" fill-rule="evenodd"/>
    <path
          d="M321.91 36.27L322.97 36.27L322.97 45L321.91 45L321.91 37.37L321.86 37.37L319.73 38.79L319.73 37.72L321.91 36.27Z"
          fill="currentColor" fill-opacity="1.000000" fill-rule="evenodd"/>

    <circle cx="313.500000" cy="190.500000" r="27.500000" stroke="currentColor" stroke-opacity="1.000000"
            stroke-width="2.000000"/>
    <path
          d="M316.42 187.09L314.71 187.09C314.54 185.65 313.2 184.81 311.45 184.81C309.51 184.81 308.23 185.84 308.23 187.23C308.23 188.79 309.97 189.36 311.04 189.64L312.52 190.04C314.03 190.44 316.62 191.32 316.62 194.05C316.62 196.4 314.71 198.25 311.36 198.25C308.23 198.25 306.3 196.63 306.13 194.25L307.95 194.25C308.09 195.89 309.62 196.66 311.36 196.66C313.37 196.66 314.91 195.61 314.91 194.02C314.91 192.57 313.54 192.03 312.01 191.6L310.22 191.09C307.95 190.44 306.53 189.27 306.53 187.31C306.53 184.87 308.72 183.25 311.5 183.25C314.31 183.25 316.34 184.89 316.42 187.09Z"
          fill="currentColor" fill-opacity="1.000000" fill-rule="evenodd"/>
    <path
          d="M325.41 185L319.9 185L319.9 184.23L322.78 181.08C323.79 179.97 324.26 179.37 324.26 178.57C324.26 177.65 323.54 177.07 322.59 177.07C321.58 177.07 320.94 177.73 320.94 178.72L319.93 178.72C319.93 177.19 321.1 176.15 322.63 176.15C324.16 176.15 325.25 177.22 325.25 178.57C325.25 179.54 324.81 180.29 323.31 181.89L321.35 183.99L321.35 184.06L325.41 184.06L325.41 185Z"
          fill="currentColor" fill-opacity="1.000000" fill-rule="evenodd"/>
    <path
          d="M325.41 207L319.9 207L319.9 206.23L322.78 203.08C323.79 201.97 324.26 201.37 324.26 200.57C324.26 199.65 323.54 199.07 322.59 199.07C321.58 199.07 320.94 199.73 320.94 200.72L319.93 200.72C319.93 199.19 321.1 198.15 322.63 198.15C324.16 198.15 325.25 199.22 325.25 200.57C325.25 201.54 324.81 202.29 323.31 203.89L321.35 205.99L321.35 206.06L325.41 206.06L325.41 207Z"
          fill="currentColor" fill-opacity="1.000000" fill-rule="evenodd"/>

    <circle cx="313.500000" cy="348.500000" r="27.500000" stroke="currentColor" stroke-opacity="1.000000"
            stroke-width="2.000000"/>
    <path
          d="M316.42 345.09L314.71 345.09C314.54 343.65 313.2 342.81 311.45 342.81C309.51 342.81 308.23 343.84 308.23 345.23C308.23 346.79 309.97 347.36 311.04 347.64L312.52 348.04C314.03 348.44 316.62 349.32 316.62 352.05C316.62 354.4 314.71 356.25 311.36 356.25C308.23 356.25 306.3 354.63 306.13 352.25L307.95 352.25C308.09 353.89 309.62 354.66 311.36 354.66C313.37 354.66 314.91 353.61 314.91 352.02C314.91 350.57 313.54 350.03 312.01 349.6L310.22 349.09C307.95 348.44 306.53 347.27 306.53 345.31C306.53 342.87 308.72 341.25 311.5 341.25C314.31 341.25 316.34 342.89 316.42 345.09Z"
          fill="currentColor" fill-opacity="1.000000" fill-rule="evenodd"/>
    <path
          d="M325.41 343L319.9 343L319.9 342.23L322.78 339.08C323.79 337.97 324.26 337.37 324.26 336.57C324.26 335.65 323.54 335.07 322.59 335.07C321.58 335.07 320.94 335.73 320.94 336.72L319.93 336.72C319.93 335.19 321.1 334.15 322.63 334.15C324.16 334.15 325.25 335.22 325.25 336.57C325.25 337.54 324.81 338.29 323.31 339.89L321.35 341.99L321.35 342.06L325.41 342.06L325.41 343Z"
          fill="currentColor" fill-opacity="1.000000" fill-rule="evenodd"/>
    <path
          d="M325.79 362.63C325.79 364.06 324.54 365.12 322.85 365.12C321.15 365.12 319.94 364.19 319.88 362.81L320.96 362.81C321.02 363.66 321.82 364.18 322.83 364.18C323.95 364.18 324.76 363.55 324.76 362.63C324.76 361.66 324.02 360.99 322.7 360.99L322 360.99L322 360.05L322.7 360.05C323.73 360.05 324.45 359.46 324.45 358.54C324.45 357.65 323.83 357.07 322.87 357.07C321.96 357.07 321.13 357.58 321.09 358.45L320.07 358.45C320.12 357.08 321.37 356.15 322.88 356.15C324.5 356.15 325.47 357.25 325.47 358.48C325.47 359.47 324.92 360.19 324.04 360.46L324.04 360.53C325.14 360.71 325.79 361.52 325.79 362.63Z"
          fill="currentColor" fill-opacity="1.000000" fill-rule="evenodd"/>

    <circle cx="313.500000" cy="505.500000" r="27.500000" stroke="currentColor" stroke-opacity="1.000000"
            stroke-width="2.000000"/>
    <path
          d="M316.42 502.09L314.71 502.09C314.54 500.65 313.2 499.81 311.45 499.81C309.51 499.81 308.23 500.84 308.23 502.23C308.23 503.79 309.97 504.36 311.04 504.64L312.52 505.04C314.03 505.44 316.62 506.32 316.62 509.05C316.62 511.4 314.71 513.25 311.36 513.25C308.23 513.25 306.3 511.63 306.13 509.25L307.95 509.25C308.09 510.89 309.62 511.66 311.36 511.66C313.37 511.66 314.91 510.61 314.91 509.02C314.91 507.57 313.54 507.03 312.01 506.6L310.22 506.09C307.95 505.44 306.53 504.27 306.53 502.31C306.53 499.87 308.72 498.25 311.5 498.25C314.31 498.25 316.34 499.89 316.42 502.09Z"
          fill="currentColor" fill-opacity="1.000000" fill-rule="evenodd"/>
    <path
          d="M325.41 500L319.9 500L319.9 499.23L322.78 496.08C323.79 494.97 324.26 494.37 324.26 493.57C324.26 492.65 323.54 492.07 322.59 492.07C321.58 492.07 320.94 492.73 320.94 493.72L319.93 493.72C319.93 492.19 321.1 491.15 322.63 491.15C324.16 491.15 325.25 492.22 325.25 493.57C325.25 494.54 324.81 495.29 323.31 496.89L321.35 498.99L321.35 499.06L325.41 499.06L325.41 500Z"
          fill="currentColor" fill-opacity="1.000000" fill-rule="evenodd"/>
    <path
          d="M323.8 520.21L319.7 520.21L319.7 519.34L323.53 513.27L324.81 513.27L324.81 519.27L326 519.27L326 520.21L324.81 520.21L324.81 522L323.8 522L323.8 520.21ZM320.84 519.27L323.8 519.27L323.8 514.62L323.73 514.62L320.84 519.2L320.84 519.27Z"
          fill="currentColor" fill-opacity="1.000000" fill-rule="evenodd"/>

    <circle cx="313.500000" cy="665.500000" r="27.500000" stroke="currentColor" stroke-opacity="1.000000"
            stroke-width="2.000000"/>
    <path
          d="M316.42 662.09L314.71 662.09C314.54 660.65 313.2 659.81 311.45 659.81C309.51 659.81 308.23 660.84 308.23 662.23C308.23 663.79 309.97 664.36 311.04 664.64L312.52 665.04C314.03 665.44 316.62 666.32 316.62 669.05C316.62 671.4 314.71 673.25 311.36 673.25C308.23 673.25 306.3 671.63 306.13 669.25L307.95 669.25C308.09 670.89 309.62 671.66 311.36 671.66C313.37 671.66 314.91 670.61 314.91 669.02C314.91 667.57 313.54 667.03 312.01 666.6L310.22 666.09C307.95 665.44 306.53 664.27 306.53 662.31C306.53 659.87 308.72 658.25 311.5 658.25C314.31 658.25 316.34 659.89 316.42 662.09Z"
          fill="currentColor" fill-opacity="1.000000" fill-rule="evenodd"/>
    <path
          d="M325.41 660L319.9 660L319.9 659.23L322.78 656.08C323.79 654.97 324.26 654.37 324.26 653.57C324.26 652.65 323.54 652.07 322.59 652.07C321.58 652.07 320.94 652.73 320.94 653.72L319.93 653.72C319.93 652.19 321.1 651.15 322.63 651.15C324.16 651.15 325.25 652.22 325.25 653.57C325.25 654.54 324.81 655.29 323.31 656.89L321.35 658.99L321.35 659.06L325.41 659.06L325.41 660Z"
          fill="currentColor" fill-opacity="1.000000" fill-rule="evenodd"/>
    <path
          d="M325.51 679.22C325.51 680.89 324.29 682.12 322.63 682.12C321.13 682.12 319.98 681.14 319.92 679.81L320.94 679.81C321.02 680.6 321.73 681.18 322.63 681.18C323.7 681.18 324.48 680.35 324.48 679.23C324.48 678.09 323.67 677.25 322.56 677.24C322.02 677.23 321.4 677.42 321.04 677.68L320.05 677.56L320.58 673.27L325.12 673.27L325.12 674.21L321.47 674.21L321.16 676.78L321.21 676.78C321.57 676.49 322.14 676.29 322.73 676.29C324.33 676.29 325.51 677.52 325.51 679.22Z"
          fill="currentColor" fill-opacity="1.000000" fill-rule="evenodd"/>
    <path id="way_1_1"
          d="M282.39 32.82L277.38 30.34C276.88 30.09 276.68 29.5 276.93 29C277.18 28.5 277.77 28.3 278.27 28.55L285.44 32.1C285.94 32.35 286.14 32.94 285.89 33.44L282.34 40.61C282.09 41.11 281.5 41.31 281 41.06C280.5 40.81 280.3 40.22 280.55 39.72L283.03 34.71L57.31 110.94L56.68 109.05L282.39 32.82Z"
          fill="currentColor" fill-opacity="1.000000" fill-rule="evenodd"/>
    <path id="way_2_2"
          d="M282.39 190.82L277.38 188.34C276.88 188.09 276.68 187.5 276.93 187C277.18 186.5 277.77 186.3 278.27 186.55L285.44 190.1C285.94 190.35 286.14 190.94 285.89 191.44L282.34 198.61C282.09 199.11 281.5 199.31 281 199.06C280.5 198.81 280.3 198.22 280.55 197.72L283.03 192.72L57.31 268.94L56.68 267.05L282.39 190.82Z"
          fill="currentColor" fill-opacity="1.000000" fill-rule="evenodd"/>
    <path id="way_3_3"
          d="M282.39 349.82L277.38 347.34C276.88 347.09 276.68 346.5 276.93 346C277.18 345.5 277.77 345.3 278.27 345.55L285.44 349.1C285.94 349.35 286.14 349.94 285.89 350.44L282.34 357.61C282.09 358.11 281.5 358.31 281 358.06C280.5 357.81 280.3 357.22 280.55 356.72L283.03 351.72L57.31 427.94L56.68 426.05L282.39 349.82Z"
          fill="currentColor" fill-opacity="1.000000" fill-rule="evenodd"/>
    <path id="way_4_4"
          d="M282.39 508.82L277.38 506.34C276.88 506.09 276.68 505.5 276.93 505C277.18 504.5 277.77 504.3 278.27 504.55L285.44 508.1C285.94 508.35 286.14 508.94 285.89 509.44L282.34 516.61C282.09 517.11 281.5 517.31 281 517.06C280.5 516.81 280.3 516.22 280.55 515.72L283.03 510.72L57.31 586.94L56.68 585.05L282.39 508.82Z"
          fill="currentColor" fill-opacity="1.000000" fill-rule="evenodd"/>
    <path id="way_4_5"
          d="M282.39 663.17L277.38 665.65C276.88 665.9 276.68 666.49 276.93 666.99C277.18 667.49 277.77 667.69 278.27 667.44L285.44 663.89C285.94 663.64 286.14 663.05 285.89 662.55L282.34 655.38C282.09 654.88 281.5 654.68 281 654.93C280.5 655.18 280.3 655.77 280.55 656.27L283.03 661.28L57.31 585.05L56.68 586.94L282.39 663.17Z"
          fill="currentColor" fill-opacity="1.000000" fill-rule="evenodd"/>
    <path id="way_3_4"
          d="M282.39 505.17L277.38 507.65C276.88 507.9 276.68 508.49 276.93 508.99C277.18 509.49 277.77 509.69 278.27 509.44L285.44 505.89C285.94 505.64 286.14 505.05 285.89 504.55L282.34 497.38C282.09 496.88 281.5 496.68 281 496.93C280.5 497.18 280.3 497.77 280.55 498.27L283.03 503.28L57.31 427.05L56.68 428.94L282.39 505.17Z"
          fill="currentColor" fill-opacity="1.000000" fill-rule="evenodd"/>
    <path id="way_2_3"
          d="M282.39 346.17L277.38 348.65C276.88 348.9 276.68 349.49 276.93 349.99C277.18 350.49 277.77 350.69 278.27 350.44L285.44 346.89C285.94 346.64 286.14 346.05 285.89 345.55L282.34 338.38C282.09 337.88 281.5 337.68 281 337.93C280.5 338.18 280.3 338.77 280.55 339.27L283.03 344.28L57.31 268.05L56.68 269.94L282.39 346.17Z"
          fill="currentColor" fill-opacity="1.000000" fill-rule="evenodd"/>
    <path id="way_1_2"
          d="M282.39 187.17L277.38 189.65C276.88 189.9 276.68 190.49 276.93 190.99C277.18 191.49 277.77 191.69 278.27 191.44L285.44 187.89C285.94 187.64 286.14 187.05 285.89 186.55L282.34 179.38C282.09 178.88 281.5 178.68 281 178.93C280.5 179.18 280.3 179.77 280.55 180.27L283.03 185.28L57.31 109.05L56.68 110.94L282.39 187.17Z"
          fill="currentColor" fill-opacity="1.000000" fill-rule="evenodd"/>
    <path id="way_2_1"
          d="M282.58 41.99L276.99 41.98C276.43 41.98 275.99 41.54 276 40.98C276 40.42 276.44 39.98 277 39.98L285 40C285.56 40 286 40.44 286 41L285.98 49C285.98 49.56 285.54 50 284.98 50C284.42 49.99 283.98 49.55 283.98 48.99L283.99 43.41L57.7 268.7L56.29 267.29L282.58 41.99Z"
          fill="currentColor" fill-opacity="1.000000" fill-rule="evenodd"/>
    <path id="way_3_2"
          d="M282.58 197.99L276.99 197.98C276.43 197.98 275.99 197.54 276 196.98C276 196.42 276.44 195.98 277 195.98L285 196C285.56 196 286 196.44 286 197L285.98 205C285.98 205.56 285.54 206 284.98 206C284.42 205.99 283.98 205.55 283.98 204.99L283.99 199.41L57.7 424.7L56.29 423.29L282.58 197.99Z"
          fill="currentColor" fill-opacity="1.000000" fill-rule="evenodd"/>
    <path id="way_4_3"
          d="M282.58 357.99L276.99 357.98C276.43 357.98 275.99 357.54 276 356.98C276 356.42 276.44 355.98 277 355.98L285 356C285.56 356 286 356.44 286 357L285.98 365C285.98 365.56 285.54 366 284.98 366C284.42 365.99 283.98 365.55 283.98 364.99L283.99 359.41L57.7 584.7L56.29 583.29L282.58 357.99Z"
          fill="currentColor" fill-opacity="1.000000" fill-rule="evenodd"/>
    <path id="way_1_3"
          d="M282.58 339L276.99 339.01C276.43 339.01 275.99 339.46 276 340.02C276 340.58 276.44 341.01 277 341.01L285 341C285.56 340.99 286 340.55 286 339.99L285.98 331.99C285.98 331.43 285.54 330.99 284.98 331C284.42 331 283.98 331.44 283.98 332L283.99 337.58L57.7 112.29L56.29 113.7L282.58 339Z"
          fill="currentColor" fill-opacity="1.000000" fill-rule="evenodd"/>
    <path id="way_2_4"
          d="M282.58 497L276.99 497.01C276.43 497.01 275.99 497.46 276 498.02C276 498.58 276.44 499.01 277 499.01L285 499C285.56 498.99 286 498.55 286 497.99L285.98 489.99C285.98 489.43 285.54 488.99 284.98 489C284.42 489 283.98 489.44 283.98 490L283.99 495.58L57.7 270.29L56.29 271.7L282.58 497Z"
          fill="currentColor" fill-opacity="1.000000" fill-rule="evenodd"/>
    <path id="way_3_5"
          d="M282.58 656L276.99 656.01C276.43 656.01 275.99 656.46 276 657.02C276 657.58 276.44 658.01 277 658.01L285 658C285.56 657.99 286 657.55 286 656.99L285.98 648.99C285.98 648.43 285.54 647.99 284.98 648C284.42 648 283.98 648.44 283.98 649L283.99 654.58L57.7 429.29L56.29 430.7L282.58 656Z"
          fill="currentColor" fill-opacity="1.000000" fill-rule="evenodd"/>
    <path id="way_1_4"
          d="M282.9 492.44L277.48 491.08C276.94 490.94 276.4 491.26 276.27 491.8C276.13 492.35 276.45 492.88 276.99 493.02L284.75 494.97C285.29 495.1 285.83 494.78 285.97 494.24L287.91 486.48C288.05 485.94 287.73 485.4 287.19 485.27C286.65 485.13 286.11 485.45 285.97 485.99L284.61 491.41L57.85 112.48L56.14 113.51L282.9 492.44Z"
          fill="currentColor" fill-opacity="1.000000" fill-rule="evenodd"/>
    <path id="way_2_5"
          d="M282.9 651.44L277.48 650.08C276.94 649.94 276.4 650.26 276.27 650.8C276.13 651.34 276.45 651.88 276.99 652.02L284.75 653.96C285.29 654.1 285.83 653.78 285.97 653.24L287.91 645.48C288.05 644.94 287.73 644.4 287.19 644.27C286.65 644.13 286.11 644.45 285.97 644.99L284.61 650.41L57.85 271.48L56.14 272.51L282.9 651.44Z"
          fill="currentColor" fill-opacity="1.000000" fill-rule="evenodd"/>
    <path id="way_4_2"
          d="M282.9 203.55L277.48 204.91C276.94 205.05 276.4 204.73 276.27 204.19C276.13 203.65 276.45 203.11 276.99 202.97L284.75 201.03C285.29 200.89 285.83 201.21 285.97 201.75L287.91 209.51C288.05 210.05 287.73 210.59 287.19 210.72C286.65 210.86 286.11 210.54 285.97 210L284.61 204.58L57.85 583.51L56.14 582.48L282.9 203.55Z"
          fill="currentColor" fill-opacity="1.000000" fill-rule="evenodd"/>
    <path id="way_3_1"
          d="M282.9 43.55L277.48 44.91C276.94 45.05 276.4 44.73 276.27 44.19C276.13 43.64 276.45 43.11 276.99 42.97L284.75 41.03C285.29 40.89 285.83 41.21 285.97 41.75L287.91 49.51C288.05 50.05 287.73 50.59 287.19 50.72C286.65 50.86 286.11 50.54 285.97 50L284.61 44.58L57.85 423.51L56.14 422.48L282.9 43.55Z"
          fill="currentColor" fill-opacity="1.000000" fill-rule="evenodd"/>
    <path id="way_1_5"
          d="M283.13 646.17L277.95 644.08C277.43 643.87 276.85 644.12 276.65 644.64C276.44 645.15 276.68 645.73 277.2 645.94L284.62 648.92C285.14 649.13 285.71 648.89 285.92 648.37L288.91 640.95C289.12 640.43 288.87 639.85 288.35 639.65C287.84 639.44 287.26 639.68 287.05 640.2L284.97 645.38L57.91 112.6L56.08 113.39L283.13 646.17Z"
          fill="currentColor" fill-opacity="1.000000" fill-rule="evenodd"/>
    <path id="way_4_1"
          d="M283.13 49.82L277.95 51.91C277.43 52.12 276.85 51.87 276.65 51.35C276.44 50.84 276.68 50.26 277.2 50.05L284.62 47.07C285.14 46.86 285.71 47.1 285.92 47.62L288.91 55.04C289.12 55.56 288.87 56.14 288.35 56.34C287.84 56.55 287.26 56.31 287.05 55.79L284.97 50.61L57.91 583.39L56.08 582.6L283.13 49.82Z"
          fill="currentColor" fill-opacity="1.000000" fill-rule="evenodd"/>
</svg>
