<svg xmlns="http://www.w3.org/2000/svg" xmlns:xlink="http://www.w3.org/1999/xlink" width="342.000000" height="694.000000" viewBox="0 0 342 694" fill="none">
  <circle cx="28.500000" cy="105.500000" r="27.500000" stroke="currentColor" stroke-opacity="1.000000" stroke-width="2.000000"/>
  <path d="M31.42 102.09L29.71 102.09C29.54 100.65 28.2 99.81 26.45 99.81C24.51 99.81 23.23 100.84 23.23 102.23C23.23 103.79 24.97 104.36 26.04 104.64L27.52 105.04C29.03 105.44 31.62 106.32 31.62 109.05C31.62 111.4 29.71 113.25 26.36 113.25C23.23 113.25 21.3 111.63 21.13 109.25L22.95 109.25C23.09 110.89 24.62 111.66 26.36 111.66C28.37 111.66 29.91 110.61 29.91 109.02C29.91 107.57 28.54 107.03 27.01 106.6L25.22 106.09C22.95 105.44 21.53 104.27 21.53 102.31C21.53 99.87 23.72 98.25 26.5 98.25C29.31 98.25 31.34 99.89 31.42 102.09Z" fill="currentColor" fill-opacity="1.000000" fill-rule="evenodd"/>
  <path d="M36.91 91.27L37.97 91.27L37.97 100L36.91 100L36.91 92.37L36.86 92.37L34.73 93.79L34.73 92.72L36.91 91.27Z" fill="currentColor" fill-opacity="1.000000" fill-rule="evenodd"/>
  <path d="M36.91 113.27L37.97 113.27L37.97 122L36.91 122L36.91 114.38L36.86 114.38L34.73 115.79L34.73 114.72L36.91 113.27Z" fill="currentColor" fill-opacity="1.000000" fill-rule="evenodd"/>
  <circle cx="28.500000" cy="267.500000" r="27.500000" stroke="currentColor" stroke-opacity="1.000000" stroke-width="2.000000"/>
  <path d="M31.42 264.09L29.71 264.09C29.54 262.65 28.2 261.81 26.45 261.81C24.51 261.81 23.23 262.84 23.23 264.23C23.23 265.79 24.97 266.36 26.04 266.64L27.52 267.04C29.03 267.44 31.62 268.32 31.62 271.04C31.62 273.4 29.71 275.25 26.36 275.25C23.23 275.25 21.3 273.63 21.13 271.25L22.95 271.25C23.09 272.89 24.62 273.66 26.36 273.66C28.37 273.66 29.91 272.61 29.91 271.02C29.91 269.57 28.54 269.03 27.01 268.6L25.22 268.09C22.95 267.44 21.53 266.27 21.53 264.31C21.53 261.87 23.72 260.25 26.5 260.25C29.31 260.25 31.34 261.89 31.42 264.09Z" fill="currentColor" fill-opacity="1.000000" fill-rule="evenodd"/>
  <path d="M36.91 253.27L37.97 253.27L37.97 262L36.91 262L36.91 254.38L36.86 254.38L34.73 255.79L34.73 254.72L36.91 253.27Z" fill="currentColor" fill-opacity="1.000000" fill-rule="evenodd"/>
  <path d="M40.41 284L34.9 284L34.9 283.23L37.78 280.07C38.79 278.97 39.26 278.37 39.26 277.57C39.26 276.65 38.54 276.07 37.59 276.07C36.58 276.07 35.94 276.73 35.94 277.72L34.93 277.72C34.93 276.19 36.1 275.15 37.62 275.15C39.16 275.15 40.25 276.22 40.25 277.57C40.25 278.54 39.81 279.29 38.31 280.89L36.35 282.99L36.35 283.06L40.41 283.06L40.41 284Z" fill="currentColor" fill-opacity="1.000000" fill-rule="evenodd"/>
  <circle cx="28.500000" cy="425.500000" r="27.500000" stroke="currentColor" stroke-opacity="1.000000" stroke-width="2.000000"/>
  <path d="M31.42 422.09L29.71 422.09C29.54 420.65 28.2 419.81 26.45 419.81C24.51 419.81 23.23 420.84 23.23 422.23C23.23 423.79 24.97 424.36 26.04 424.64L27.52 425.04C29.03 425.44 31.62 426.32 31.62 429.05C31.62 431.4 29.71 433.25 26.36 433.25C23.23 433.25 21.3 431.63 21.13 429.25L22.95 429.25C23.09 430.89 24.62 431.66 26.36 431.66C28.37 431.66 29.91 430.61 29.91 429.02C29.91 427.57 28.54 427.03 27.01 426.6L25.22 426.09C22.95 425.44 21.53 424.27 21.53 422.31C21.53 419.87 23.72 418.25 26.5 418.25C29.31 418.25 31.34 419.89 31.42 422.09Z" fill="currentColor" fill-opacity="1.000000" fill-rule="evenodd"/>
  <path d="M36.91 411.27L37.97 411.27L37.97 420L36.91 420L36.91 412.38L36.86 412.38L34.73 413.79L34.73 412.72L36.91 411.27Z" fill="currentColor" fill-opacity="1.000000" fill-rule="evenodd"/>
  <path d="M40.79 439.63C40.79 441.06 39.54 442.12 37.85 442.12C36.15 442.12 34.94 441.19 34.88 439.81L35.96 439.81C36.02 440.66 36.82 441.18 37.83 441.18C38.95 441.18 39.76 440.55 39.76 439.63C39.76 438.66 39.02 437.99 37.7 437.99L37 437.99L37 437.05L37.7 437.05C38.73 437.05 39.45 436.46 39.45 435.54C39.45 434.65 38.83 434.07 37.87 434.07C36.96 434.07 36.13 434.58 36.09 435.45L35.07 435.45C35.12 434.08 36.37 433.15 37.88 433.15C39.5 433.15 40.47 434.25 40.47 435.48C40.47 436.47 39.92 437.19 39.04 437.46L39.04 437.53C40.14 437.71 40.79 438.52 40.79 439.63Z" fill="currentColor" fill-opacity="1.000000" fill-rule="evenodd"/>
  <circle cx="28.500000" cy="583.500000" r="27.500000" stroke="currentColor" stroke-opacity="1.000000" stroke-width="2.000000"/>
  <path d="M31.42 580.09L29.71 580.09C29.54 578.65 28.2 577.81 26.45 577.81C24.51 577.81 23.23 578.84 23.23 580.23C23.23 581.79 24.97 582.36 26.04 582.64L27.52 583.04C29.03 583.44 31.62 584.32 31.62 587.05C31.62 589.4 29.71 591.25 26.36 591.25C23.23 591.25 21.3 589.63 21.13 587.25L22.95 587.25C23.09 588.89 24.62 589.66 26.36 589.66C28.37 589.66 29.91 588.61 29.91 587.02C29.91 585.57 28.54 585.03 27.01 584.6L25.22 584.09C22.95 583.44 21.53 582.27 21.53 580.31C21.53 577.87 23.72 576.25 26.5 576.25C29.31 576.25 31.34 577.89 31.42 580.09Z" fill="currentColor" fill-opacity="1.000000" fill-rule="evenodd"/>
  <path d="M36.91 569.27L37.97 569.27L37.97 578L36.91 578L36.91 570.38L36.86 570.38L34.73 571.79L34.73 570.72L36.91 569.27Z" fill="currentColor" fill-opacity="1.000000" fill-rule="evenodd"/>
  <path d="M38.8 598.21L34.7 598.21L34.7 597.34L38.53 591.27L39.81 591.27L39.81 597.27L41 597.27L41 598.21L39.81 598.21L39.81 600L38.8 600L38.8 598.21ZM35.83 597.27L38.8 597.27L38.8 592.62L38.73 592.62L35.83 597.2L35.83 597.27Z" fill="currentColor" fill-opacity="1.000000" fill-rule="evenodd"/>
</svg>
