<svg xmlns="http://www.w3.org/2000/svg" xmlns:xlink="http://www.w3.org/1999/xlink" width="342.000000" height="694.000000" viewBox="0 0 342 694" fill="none">
  <circle cx="313.500000" cy="28.500000" r="27.500000" stroke="currentColor" stroke-opacity="1.000000" stroke-width="2.000000"/>
  <path d="M316.42 25.09L314.71 25.09C314.54 23.65 313.2 22.81 311.45 22.81C309.51 22.81 308.23 23.84 308.23 25.23C308.23 26.79 309.97 27.36 311.04 27.64L312.52 28.04C314.03 28.44 316.62 29.32 316.62 32.04C316.62 34.4 314.71 36.25 311.36 36.25C308.23 36.25 306.3 34.63 306.13 32.25L307.95 32.25C308.09 33.89 309.62 34.66 311.36 34.66C313.37 34.66 314.91 33.61 314.91 32.02C314.91 30.57 313.54 30.03 312.01 29.6L310.22 29.09C307.95 28.44 306.53 27.27 306.53 25.31C306.53 22.87 308.72 21.25 311.5 21.25C314.31 21.25 316.34 22.89 316.42 25.09Z" fill="currentColor" fill-opacity="1.000000" fill-rule="evenodd"/>
  <path d="M325.41 23L319.9 23L319.9 22.23L322.78 19.08C323.79 17.97 324.26 17.37 324.26 16.57C324.26 15.65 323.54 15.07 322.59 15.07C321.58 15.07 320.94 15.73 320.94 16.72L319.93 16.72C319.93 15.19 321.1 14.15 322.63 14.15C324.16 14.15 325.25 15.22 325.25 16.57C325.25 17.54 324.81 18.29 323.31 19.89L321.35 21.99L321.35 22.06L325.41 22.06L325.41 23Z" fill="currentColor" fill-opacity="1.000000" fill-rule="evenodd"/>
  <path d="M321.91 36.27L322.97 36.27L322.97 45L321.91 45L321.91 37.37L321.86 37.37L319.73 38.79L319.73 37.72L321.91 36.27Z" fill="currentColor" fill-opacity="1.000000" fill-rule="evenodd"/>
  <circle cx="313.500000" cy="190.500000" r="27.500000" stroke="currentColor" stroke-opacity="1.000000" stroke-width="2.000000"/>
  <path d="M316.42 187.09L314.71 187.09C314.54 185.65 313.2 184.81 311.45 184.81C309.51 184.81 308.23 185.84 308.23 187.23C308.23 188.79 309.97 189.36 311.04 189.64L312.52 190.04C314.03 190.44 316.62 191.32 316.62 194.05C316.62 196.4 314.71 198.25 311.36 198.25C308.23 198.25 306.3 196.63 306.13 194.25L307.95 194.25C308.09 195.89 309.62 196.66 311.36 196.66C313.37 196.66 314.91 195.61 314.91 194.02C314.91 192.57 313.54 192.03 312.01 191.6L310.22 191.09C307.95 190.44 306.53 189.27 306.53 187.31C306.53 184.87 308.72 183.25 311.5 183.25C314.31 183.25 316.34 184.89 316.42 187.09Z" fill="currentColor" fill-opacity="1.000000" fill-rule="evenodd"/>
  <path d="M325.41 185L319.9 185L319.9 184.23L322.78 181.08C323.79 179.97 324.26 179.37 324.26 178.57C324.26 177.65 323.54 177.07 322.59 177.07C321.58 177.07 320.94 177.73 320.94 178.72L319.93 178.72C319.93 177.19 321.1 176.15 322.63 176.15C324.16 176.15 325.25 177.22 325.25 178.57C325.25 179.54 324.81 180.29 323.31 181.89L321.35 183.99L321.35 184.06L325.41 184.06L325.41 185Z" fill="currentColor" fill-opacity="1.000000" fill-rule="evenodd"/>
  <path d="M325.41 207L319.9 207L319.9 206.23L322.78 203.08C323.79 201.97 324.26 201.37 324.26 200.57C324.26 199.65 323.54 199.07 322.59 199.07C321.58 199.07 320.94 199.73 320.94 200.72L319.93 200.72C319.93 199.19 321.1 198.15 322.63 198.15C324.16 198.15 325.25 199.22 325.25 200.57C325.25 201.54 324.81 202.29 323.31 203.89L321.35 205.99L321.35 206.06L325.41 206.06L325.41 207Z" fill="currentColor" fill-opacity="1.000000" fill-rule="evenodd"/>
  <circle cx="313.500000" cy="348.500000" r="27.500000" stroke="currentColor" stroke-opacity="1.000000" stroke-width="2.000000"/>
  <path d="M316.42 345.09L314.71 345.09C314.54 343.65 313.2 342.81 311.45 342.81C309.51 342.81 308.23 343.84 308.23 345.23C308.23 346.79 309.97 347.36 311.04 347.64L312.52 348.04C314.03 348.44 316.62 349.32 316.62 352.05C316.62 354.4 314.71 356.25 311.36 356.25C308.23 356.25 306.3 354.63 306.13 352.25L307.95 352.25C308.09 353.89 309.62 354.66 311.36 354.66C313.37 354.66 314.91 353.61 314.91 352.02C314.91 350.57 313.54 350.03 312.01 349.6L310.22 349.09C307.95 348.44 306.53 347.27 306.53 345.31C306.53 342.87 308.72 341.25 311.5 341.25C314.31 341.25 316.34 342.89 316.42 345.09Z" fill="currentColor" fill-opacity="1.000000" fill-rule="evenodd"/>
  <path d="M325.41 343L319.9 343L319.9 342.23L322.78 339.08C323.79 337.97 324.26 337.37 324.26 336.57C324.26 335.65 323.54 335.07 322.59 335.07C321.58 335.07 320.94 335.73 320.94 336.72L319.93 336.72C319.93 335.19 321.1 334.15 322.63 334.15C324.16 334.15 325.25 335.22 325.25 336.57C325.25 337.54 324.81 338.29 323.31 339.89L321.35 341.99L321.35 342.06L325.41 342.06L325.41 343Z" fill="currentColor" fill-opacity="1.000000" fill-rule="evenodd"/>
  <path d="M325.79 362.63C325.79 364.06 324.54 365.12 322.85 365.12C321.15 365.12 319.94 364.19 319.88 362.81L320.96 362.81C321.02 363.66 321.82 364.18 322.83 364.18C323.95 364.18 324.76 363.55 324.76 362.63C324.76 361.66 324.02 360.99 322.7 360.99L322 360.99L322 360.05L322.7 360.05C323.73 360.05 324.45 359.46 324.45 358.54C324.45 357.65 323.83 357.07 322.87 357.07C321.96 357.07 321.13 357.58 321.09 358.45L320.07 358.45C320.12 357.08 321.37 356.15 322.88 356.15C324.5 356.15 325.47 357.25 325.47 358.48C325.47 359.47 324.92 360.19 324.04 360.46L324.04 360.53C325.14 360.71 325.79 361.52 325.79 362.63Z" fill="currentColor" fill-opacity="1.000000" fill-rule="evenodd"/>
  <circle cx="313.500000" cy="505.500000" r="27.500000" stroke="currentColor" stroke-opacity="1.000000" stroke-width="2.000000"/>
  <path d="M316.42 502.09L314.71 502.09C314.54 500.65 313.2 499.81 311.45 499.81C309.51 499.81 308.23 500.84 308.23 502.23C308.23 503.79 309.97 504.36 311.04 504.64L312.52 505.04C314.03 505.44 316.62 506.32 316.62 509.05C316.62 511.4 314.71 513.25 311.36 513.25C308.23 513.25 306.3 511.63 306.13 509.25L307.95 509.25C308.09 510.89 309.62 511.66 311.36 511.66C313.37 511.66 314.91 510.61 314.91 509.02C314.91 507.57 313.54 507.03 312.01 506.6L310.22 506.09C307.95 505.44 306.53 504.27 306.53 502.31C306.53 499.87 308.72 498.25 311.5 498.25C314.31 498.25 316.34 499.89 316.42 502.09Z" fill="currentColor" fill-opacity="1.000000" fill-rule="evenodd"/>
  <path d="M325.41 500L319.9 500L319.9 499.23L322.78 496.08C323.79 494.97 324.26 494.37 324.26 493.57C324.26 492.65 323.54 492.07 322.59 492.07C321.58 492.07 320.94 492.73 320.94 493.72L319.93 493.72C319.93 492.19 321.1 491.15 322.63 491.15C324.16 491.15 325.25 492.22 325.25 493.57C325.25 494.54 324.81 495.29 323.31 496.89L321.35 498.99L321.35 499.06L325.41 499.06L325.41 500Z" fill="currentColor" fill-opacity="1.000000" fill-rule="evenodd"/>
  <path d="M323.8 520.21L319.7 520.21L319.7 519.34L323.53 513.27L324.81 513.27L324.81 519.27L326 519.27L326 520.21L324.81 520.21L324.81 522L323.8 522L323.8 520.21ZM320.84 519.27L323.8 519.27L323.8 514.62L323.73 514.62L320.84 519.2L320.84 519.27Z" fill="currentColor" fill-opacity="1.000000" fill-rule="evenodd"/>
  <circle cx="313.500000" cy="665.500000" r="27.500000" stroke="currentColor" stroke-opacity="1.000000" stroke-width="2.000000"/>
  <path d="M316.42 662.09L314.71 662.09C314.54 660.65 313.2 659.81 311.45 659.81C309.51 659.81 308.23 660.84 308.23 662.23C308.23 663.79 309.97 664.36 311.04 664.64L312.52 665.04C314.03 665.44 316.62 666.32 316.62 669.05C316.62 671.4 314.71 673.25 311.36 673.25C308.23 673.25 306.3 671.63 306.13 669.25L307.95 669.25C308.09 670.89 309.62 671.66 311.36 671.66C313.37 671.66 314.91 670.61 314.91 669.02C314.91 667.57 313.54 667.03 312.01 666.6L310.22 666.09C307.95 665.44 306.53 664.27 306.53 662.31C306.53 659.87 308.72 658.25 311.5 658.25C314.31 658.25 316.34 659.89 316.42 662.09Z" fill="currentColor" fill-opacity="1.000000" fill-rule="evenodd"/>
  <path d="M325.41 660L319.9 660L319.9 659.23L322.78 656.08C323.79 654.97 324.26 654.37 324.26 653.57C324.26 652.65 323.54 652.07 322.59 652.07C321.58 652.07 320.94 652.73 320.94 653.72L319.93 653.72C319.93 652.19 321.1 651.15 322.63 651.15C324.16 651.15 325.25 652.22 325.25 653.57C325.25 654.54 324.81 655.29 323.31 656.89L321.35 658.99L321.35 659.06L325.41 659.06L325.41 660Z" fill="currentColor" fill-opacity="1.000000" fill-rule="evenodd"/>
  <path d="M325.51 679.22C325.51 680.89 324.29 682.12 322.63 682.12C321.13 682.12 319.98 681.14 319.92 679.81L320.94 679.81C321.02 680.6 321.73 681.18 322.63 681.18C323.7 681.18 324.48 680.35 324.48 679.23C324.48 678.09 323.67 677.25 322.56 677.24C322.02 677.23 321.4 677.42 321.04 677.68L320.05 677.56L320.58 673.27L325.12 673.27L325.12 674.21L321.47 674.21L321.16 676.78L321.21 676.78C321.57 676.49 322.14 676.29 322.73 676.29C324.33 676.29 325.51 677.52 325.51 679.22Z" fill="currentColor" fill-opacity="1.000000" fill-rule="evenodd"/>
</svg>
